:SAMPLES-PER-SECOND 30
:FRAME-RANGE 1-2045
:FULLY-SPECIFIED
:DEGREES
512
root  69.0141 35.936 -1.2554 -16.5795 -87.1483 26.9006
RightUpLeg  -31.3852 -5.91222 -17.7886
RightLeg  42.6319 2.20702 1.88936
RightFoot  -18.0742 0.982912 18.6561
RightToes  -5.28216e-011 1.2921e-014 -6.02303e-014
Spine  21.5305 2.23145 3.44994
Spine1  -2.01592 4.13978 -5.08266
HEad  -8.29599 22.8323 -20.8647
LeftShoulder1  1.92319 -8.10988 -9.7522
LeftArm  -20.3267 -19.1507 -30.6766
LeftForeArm  -24.418 -30.0382 -7.73391
LeftHand  0.433245 0.31638 -10.0272
RightShoulder  2.41451 7.17509 16.4668
RightArm  -8.49744 38.7365 81.3613
RightForeArm  14.901 27.1422 5.04513
RightHand  -0.0843509 -4.01594 -5.63065
LeftUpLeg  -40.507 0.790194 15.7701
LeftLeg  29.5071 -12.0042 -6.91528
LeftFoot  -7.16654 0.833254 -21.4664
LeftToes  9.43379e-011 5.24309e-011 -4.66411e-011
513
root  68.8712 35.4391 -0.900649 -5.69882 -88.1892 16.8411
RightUpLeg  -33.525 -5.47436 -17.8167
RightLeg  45.1309 2.47651 2.36059
RightFoot  -19.3952 1.23016 19.1905
RightToes  -5.28216e-011 1.2921e-014 -6.02303e-014
Spine  22.6167 2.43301 3.63679
Spine1  -2.61804 4.50859 -5.40558
HEad  -9.62159 22.1846 -21.721
LeftShoulder1  1.89267 -7.90951 -9.78471
LeftArm  -20.597 -19.0487 -31.2061
LeftForeArm  -23.9312 -31.0828 -7.99055
LeftHand  0.423333 0.296612 -9.75881
RightShoulder  2.46054 7.41162 16.3828
RightArm  -8.33143 40.5101 80.617
RightForeArm  14.7172 25.819 4.75891
RightHand  -0.0867027 -3.90332 -5.41712
LeftUpLeg  -43.7309 0.443589 16.7198
LeftLeg  34.7239 -10.6014 -7.44751
LeftFoot  -8.50316 0.557869 -20.2879
LeftToes  9.43379e-011 5.24309e-011 -4.66411e-011
514
root  68.7586 35.0067 -0.589806 -33.9247 -89.2898 45.3856
RightUpLeg  -35.1772 -4.34317 -18.7662
RightLeg  47.292 2.60957 2.70871
RightFoot  -20.5737 1.48976 20.0042
RightToes  -5.28216e-011 1.2921e-014 -6.02303e-014
Spine  23.7025 2.90045 3.08604
Spine1  -2.11593 5.17481 -6.13916
HEad  -10.575 21.31 -22.1376
LeftShoulder1  1.88864 -8.00444 -9.58672
LeftArm  -21.1284 -19.9275 -31.4239
LeftForeArm  -23.3104 -31.4986 -8.07618
LeftHand  0.429683 0.0852295 -9.47785
RightShoulder  2.54517 7.78149 16.3835
RightArm  -10.2957 42.5016 80.1861
RightForeArm  15.885 24.2217 4.34877
RightHand  -0.10025 -3.2638 -4.66745
LeftUpLeg  -46.0027 1.86327 15.8377
LeftLeg  39.0371 -10.3674 -8.51614
LeftFoot  -7.23492 0.601275 -15.4884
LeftToes  9.43379e-011 5.24309e-011 -4.66411e-011
515
root  68.6059 34.608 -0.270224 -110.95 -89.3571 122.459
RightUpLeg  -36.1706 -3.5186 -19.7714
RightLeg  49.1906 2.77016 3.10233
RightFoot  -21.8294 1.77908 20.7987
RightToes  -5.28216e-011 1.2921e-014 -6.02303e-014
Spine  24.8495 3.17369 2.84609
Spine1  -1.84461 5.60739 -6.70186
HEad  -9.96758 20.8919 -22.4357
LeftShoulder1  1.95675 -8.21325 -9.90843
LeftArm  -22.6093 -20.9479 -31.3828
LeftForeArm  -22.2527 -31.6522 -8.07182
LeftHand  0.421576 -0.00274873 -9.1357
RightShoulder  2.65839 8.15792 16.6422
RightArm  -12.325 43.5466 79.7657
RightForeArm  16.7403 23.1892 4.09816
RightHand  -0.121422 -2.59442 -4.56259
LeftUpLeg  -47.7821 2.5819 15.2181
LeftLeg  43.0726 -9.74082 -9.21825
LeftFoot  -8.28547 0.41614 -13.6934
LeftToes  9.43379e-011 5.24309e-011 -4.66411e-011
516
root  68.4539 34.3009 0.029491 -156.834 -89.0763 168.599
RightUpLeg  -37.0296 -2.85615 -20.2199
RightLeg  50.4942 2.84031 3.34527
RightFoot  -22.5767 1.95467 21.2176
RightToes  -5.28216e-011 1.2921e-014 -6.02303e-014
Spine  26.0558 3.20179 3.25889
Spine1  -2.45137 5.82718 -7.16256
HEad  -8.99533 20.9 -22.3709
LeftShoulder1  1.90832 -8.01114 -9.76974
LeftArm  -24.9589 -21.1782 -32.0212
LeftForeArm  -20.4856 -32.0047 -8.08911
LeftHand  0.410291 0.0384031 -8.96655
RightShoulder  2.65164 8.11488 16.6728
RightArm  -12.5959 43.3014 80.0897
RightForeArm  16.6074 23.5942 4.17898
RightHand  -0.128803 -2.40227 -4.59332
LeftUpLeg  -49.4041 3.14704 15.0906
LeftLeg  46.2778 -9.1306 -9.66142
LeftFoot  -9.30365 0.275952 -12.3542
LeftToes  9.43379e-011 5.24309e-011 -4.66411e-011
517
root  68.3159 34.0912 0.238813 -169.187 -88.3096 -178.762
RightUpLeg  -37.8295 -2.34573 -20.6134
RightLeg  51.3404 3.0953 3.79221
RightFoot  -23.0714 2.07238 21.4781
RightToes  -5.28216e-011 1.2921e-014 -6.02303e-014
Spine  26.4589 3.29764 3.11216
Spine1  -2.40962 5.90678 -7.08491
HEad  -7.92293 21.237 -22.4296
LeftShoulder1  1.83992 -7.67962 -9.64322
LeftArm  -25.3857 -20.4738 -31.2554
LeftForeArm  -20.7628 -32.7642 -8.31164
LeftHand  0.421721 0.0265415 -9.19295
RightShoulder  2.64499 7.99992 16.8656
RightArm  -10.5002 42.4047 80.4466
RightForeArm  15.5152 25.3343 4.60938
RightHand  -0.139511 -2.26195 -4.81447
LeftUpLeg  -50.4515 3.78976 14.9523
LeftLeg  48.4843 -8.67907 -9.92154
LeftFoot  -10.0551 0.194207 -11.9167
LeftToes  9.43379e-011 5.24309e-011 -4.66411e-011
